<?xml version="1.0" encoding="utf-8"?>
<!-- Generator: Adobe Illustrator 25.0.1, SVG Export Plug-In . SVG Version: 6.00 Build 0)  -->
<svg version="1.1" id="圖層_1" xmlns="http://www.w3.org/2000/svg" xmlns:xlink="http://www.w3.org/1999/xlink" x="0px" y="0px"
	 viewBox="0 0 178 37" style="enable-background:new 0 0 178 37;" xml:space="preserve">
<style type="text/css">
	.st0{fill:url(#SVGID_1_);}
	.st1{fill:url(#SVGID_2_);}
	.st2{fill:#E5AA17;}
	.st3{fill:#898989;}
</style>
<g>
	
		<linearGradient id="SVGID_1_" gradientUnits="userSpaceOnUse" x1="27.8783" y1="2395.2791" x2="36.5371" y2="2445.3496" gradientTransform="matrix(1 0 0 1 0 -2398)">
		<stop  offset="0" style="stop-color:#D4B863"/>
		<stop  offset="0.1566" style="stop-color:#F4E540"/>
		<stop  offset="0.495" style="stop-color:#E4A54C"/>
		<stop  offset="0.6993" style="stop-color:#413932"/>
		<stop  offset="1" style="stop-color:#73684B"/>
	</linearGradient>
	<path class="st0" d="M54.9,6.1c-0.6,0-1.1,0.5-1.1,1.1c0,0.4,0.2,0.7,0.4,0.9L43.1,20.2l-1.5-9.1c0.5-0.1,0.9-0.5,0.9-1.1
		S42,8.9,41.4,8.9s-1.1,0.5-1.1,1.1c0,0.5,0.3,0.8,0.6,1l-5.3,10.4l0.9,3.1l4.3-8.4l2,4.4l-6.7,7.3L30.7,8.9l-0.6-2.2
		c0.5-0.1,0.8-0.5,0.8-1.1s-0.5-1.1-1.1-1.1S28.7,5,28.7,5.6c0,0.5,0.3,0.9,0.8,1.1l-0.6,2.2l-5.4,18.9l-6.7-7.3l2-4.4l4.3,8.4
		l0.9-3.1L18.7,11c0.4-0.2,0.6-0.6,0.6-1c0-0.6-0.5-1.1-1.1-1.1s-1.1,0.5-1.1,1.1s0.4,1,0.9,1.1l-1.5,9.1L5.2,7.8
		c0.1-0.2,0.2-0.4,0.2-0.6c0-0.6-0.5-1.1-1.1-1.1S3.2,6.6,3.2,7.2s0.5,1.1,1.1,1.1c0.1,0,0.3,0,0.4-0.1L13,32.6l1.9-7.6l-1.7,1.8
		L8.9,15.2l15.3,16.7l5.7-19.8l5.7,19.8l15.3-16.7l-4.3,11.6L44.8,25l1.9,7.6L55,8.4c0.6,0,1-0.5,1-1.1C56,6.6,55.5,6.1,54.9,6.1z"
		/>
	
		<linearGradient id="SVGID_2_" gradientUnits="userSpaceOnUse" x1="27.8749" y1="2395.2798" x2="36.5337" y2="2445.3501" gradientTransform="matrix(1 0 0 1 0 -2398)">
		<stop  offset="0" style="stop-color:#D4B863"/>
		<stop  offset="0.1566" style="stop-color:#F4E540"/>
		<stop  offset="0.495" style="stop-color:#E4A54C"/>
		<stop  offset="0.6993" style="stop-color:#413932"/>
		<stop  offset="1" style="stop-color:#73684B"/>
	</linearGradient>
	<path class="st1" d="M46.6,34.3l-2.7-10.9l-8.6,9.4l-5.4-19l-5.4,19l-8.6-9.4l-2.7,10.9L4.3,8.9c-0.8,0-1.6-0.7-1.6-1.7
		c0-0.9,0.7-1.6,1.6-1.6s1.6,0.7,1.6,1.6c0,0.2,0,0.3-0.1,0.5l10.5,11.4l1.3-7.7c-0.5-0.3-0.9-0.8-0.9-1.4c0-0.9,0.7-1.6,1.6-1.6
		s1.6,0.7,1.6,1.6c0,0.4-0.2,0.9-0.5,1.2l5.2,10.2l-1.3,4.5l-4.4-8.7l-1.4,3.1l5.9,6.4L29,6.9c-0.4-0.3-0.7-0.8-0.7-1.3
		C28.3,4.7,29,4,29.9,4s1.6,0.7,1.6,1.6c0,0.5-0.3,1-0.7,1.3l5.7,19.9l5.9-6.4L41,17.3L36.6,26l-1.3-4.5l5.2-10.2
		C40.2,11,40,10.6,40,10.1c0-0.9,0.7-1.6,1.6-1.6S43,9.2,43,10.1c0,0.6-0.3,1.2-0.9,1.4l1.3,7.7L53.5,8.1c-0.2-0.3-0.2-0.5-0.2-0.8
		c0-0.9,0.7-1.6,1.6-1.6s1.6,0.7,1.6,1.6c0,0.7-0.5,1.3-1.1,1.5L46.6,34.3z M29.8,10.2l5.9,20.6L52.1,13l-5.4,14.7l-1-1l1,4.1
		l7.6-22l-18.4,20L29.8,7.5l-6.1,21.3L5.4,8.8l7.6,22l1-4.1l-1,1L7.5,13l16.4,17.9L29.8,10.2z M10.2,17.4l3.1,8.5l2.4-2.5L10.2,17.4
		z M43.9,23.4l2.4,2.5l3.1-8.5L43.9,23.4z M36.2,21.5l0.5,1.7l4.2-8.2l1.3,2.8l-1-6L36.2,21.5z M18.8,15l4.2,8.2l0.5-1.7l-4.9-9.7
		l-1,6L18.8,15z M41.4,9.4c-0.3,0-0.6,0.3-0.6,0.6c0,0.2,0.1,0.5,0.3,0.6l0.1,0.1h0.2c0.3,0,0.5-0.3,0.5-0.6
		C42,9.7,41.7,9.4,41.4,9.4z M18.2,9.4c-0.3,0-0.6,0.3-0.6,0.6s0.2,0.6,0.5,0.6h0.2l0.1-0.1c0.2-0.1,0.3-0.3,0.3-0.6
		C18.8,9.7,18.6,9.4,18.2,9.4z M54.9,6.6c-0.3,0-0.6,0.3-0.6,0.6c0,0.2,0.1,0.4,0.2,0.5l0.2,0.1h0.2c0.3,0,0.5-0.3,0.5-0.6
		C55.5,6.9,55.2,6.6,54.9,6.6z M4.3,6.6C4,6.6,3.7,6.9,3.7,7.2c0,0.4,0.4,0.7,0.8,0.6l0.1-0.1l0.1-0.2c0.1-0.1,0.1-0.2,0.1-0.3
		C4.8,6.9,4.6,6.6,4.3,6.6z M29.8,4.9c-0.3,0-0.6,0.3-0.6,0.6c0,0.3,0.2,0.5,0.4,0.6h0.1h0.1c0.3-0.1,0.4-0.3,0.4-0.6
		C30.4,5.2,30.1,4.9,29.8,4.9z"/>
</g>
<g>
	<path class="st2" d="M76.1,11.2c1,0,1.8-0.7,1.8-1.8c0-1-0.7-1.8-1.8-1.8c-1.1,0-1.8,0.7-1.8,1.8C74.4,10.5,75.1,11.2,76.1,11.2z
		 M76.1,8.5c0.5,0,1,0.4,1,1s-0.4,1-1,1c-0.5,0-1-0.4-1-1C75.1,9,75.7,8.5,76.1,8.5z"/>
	<path class="st2" d="M77.5,19.5c-0.9-3.4-2.2-6.8-4-10.1L72,10.3c1.8,3.4,3,6.8,3.7,10.1L77.5,19.5z"/>
	<path class="st2" d="M68.7,10.2l-1.8-0.9c-0.6,4-1.9,7.3-3.7,10l1.7,1.4C66.6,17.8,67.9,14.3,68.7,10.2z"/>
	<rect x="81.7" y="8.4" class="st2" width="8.4" height="1.7"/>
	<path class="st2" d="M79.8,12.4v1.7h10.1c-1.3,2.8-3.7,4.8-7.5,6.2l1.3,1.5c4.4-1.5,7.2-4.3,8.5-8.1l-1.1-1.3L79.8,12.4L79.8,12.4z
		"/>
	<path class="st2" d="M107.2,7.6c0.5,0.7,0.7,1.5,1.1,2l1.2-0.5c-0.3-0.5-0.5-1.3-1.1-2L107.2,7.6z"/>
	<path class="st2" d="M107.7,9.9c-0.3-0.6-0.5-1.3-1-2l-1.3,0.6c0.5,0.6,0.7,1.4,1,1.9L107.7,9.9z"/>
	<path class="st2" d="M99.8,11.7h5.1c-0.6,1.6-1.4,3-2.2,4.1c-0.7-0.6-1.7-1.4-2.9-1.8l-1.2,1.3c1.1,0.5,2,1.3,2.9,2
		c-1.6,1.5-3.4,2.8-5.3,3.5l1.2,1.5c4.7-2.1,8-5.7,9.6-11.1l-1.2-1.3h-5.2c0.2-0.6,0.5-1.3,0.6-2l-1.8-0.2c-0.7,2.9-2.4,5.3-4.9,7.2
		l1.3,1.4C97.3,15.1,98.6,13.5,99.8,11.7z"/>
	<path class="st2" d="M110.5,15.5l1.4,1.6c1.5-0.7,3.2-1.8,4.9-3.2v7.8h1.8v-9.1c1-1,2-2.1,3.2-3.4l-1.5-1.1
		C117.8,11.1,114.5,13.6,110.5,15.5z"/>
	<path class="st2" d="M137.9,21.3l1.4-1.5c-1.2-1.5-2.9-3-5-4.8c1-1.3,2-2.9,3-5l-1.1-1.2h-8.9v1.7h7.8c-2.2,4.3-5.3,7.2-9.4,9
		l1.1,1.7c2.4-1.1,4.6-2.7,6.6-5C135.2,18.2,136.6,19.9,137.9,21.3z"/>
</g>
<g>
	<path class="st3" d="M67,24h-3.9v9.6h2.1V30H67c1.8,0,3.5-0.9,3.5-3C70.4,25.1,69,24,67,24z M66.7,28.3h-1.6v-2.7h1.6
		c0.9,0,1.6,0.3,1.6,1.4C68.3,27.9,67.6,28.3,66.7,28.3z"/>
	<path class="st3" d="M74.8,24l-3.2,9.6h2l0.7-2.2h3.5l0.8,2.2h2.2L77.4,24H74.8z M74.8,29.6c0.6-1.7,1-3.2,1.3-4.1l0,0
		c0.2,0.8,0.7,2.2,1.4,4.1H74.8z"/>
	<path class="st3" d="M90.8,26.6c0-1.5-1.2-2.7-3.2-2.7h-4.1v9.6h2v-3.8h1.4c1.5,0,1.8,0.5,1.8,1.5v0.1c0,1,0,1.7,0.2,2.2h2
		c-0.1-0.5-0.1-1.2-0.1-1.8v-0.5c0-1.7-0.7-2.2-1.2-2.4C90.1,28.6,90.8,27.9,90.8,26.6z M87.1,28h-1.7v-2.4h1.7c1,0,1.5,0.5,1.5,1.2
		C88.7,27.7,88.2,28,87.1,28z"/>
	<path class="st3" d="M96.4,24l-3.2,9.6h2.1l0.7-2.2h3.5l0.8,2.2h2.2L99.2,24C99.2,24,96.4,24,96.4,24z M96.3,29.6
		c0.6-1.7,1-3.2,1.3-4.1l0,0c0.2,0.8,0.7,2.2,1.4,4.1H96.3z"/>
	<path class="st3" d="M108.8,24H105v9.6h3.7c2.9,0,4.7-2.1,4.7-4.8C113.4,25.8,111.5,24,108.8,24z M108.5,31.8H107v-6.2h1.6
		c1.8,0,2.7,1.4,2.7,3C111.2,30.4,110.4,31.8,108.5,31.8z"/>
	<rect x="116.5" y="24" class="st3" width="2.1" height="9.6"/>
	<path class="st3" d="M125.9,27.7c-1.5-0.3-2-0.6-2-1.3c0-0.7,0.5-1,1.4-1c1.3,0,1.5,0.7,1.6,1.3h2.1c-0.1-1.4-1.2-2.8-3.7-2.8
		c-2.3,0-3.5,1.2-3.5,2.8c0,1.3,0.7,2.2,3.2,2.9c1.6,0.3,2.1,0.7,2.1,1.5c0,0.7-0.5,1.2-1.6,1.2s-1.8-0.5-2-1.4h-2.1
		c0.2,1.7,1.5,2.9,3.9,2.9c2.5,0,3.8-1.2,3.8-2.9C129.3,29.4,128.7,28.3,125.9,27.7z"/>
	<polygon class="st3" points="134.1,29.4 138.7,29.4 138.7,27.7 134.1,27.7 134.1,25.7 138.9,25.7 138.9,24 132.1,24 132.1,33.5 
		138.9,33.5 139.2,31.8 134.1,31.8 	"/>
</g>
</svg>
