<?xml version="1.0" encoding="utf-8"?>
<!-- Generator: Adobe Illustrator 25.0.1, SVG Export Plug-In . SVG Version: 6.00 Build 0)  -->
<svg version="1.1" id="圖層_1" xmlns="http://www.w3.org/2000/svg" xmlns:xlink="http://www.w3.org/1999/xlink" x="0px" y="0px"
	 viewBox="0 0 35 37" style="enable-background:new 0 0 35 37;" xml:space="preserve">
<style type="text/css">
	.st0{fill:url(#SVGID_1_);}
	.st1{fill:url(#SVGID_2_);}
</style>
<g>
	<linearGradient id="SVGID_1_" gradientUnits="userSpaceOnUse" x1="16.4139" y1="5.7123" x2="21.9782" y2="37.8882">
		<stop  offset="0" style="stop-color:#D4B863"/>
		<stop  offset="0.1566" style="stop-color:#F4E540"/>
		<stop  offset="0.495" style="stop-color:#E4A54C"/>
		<stop  offset="0.6993" style="stop-color:#413932"/>
		<stop  offset="1" style="stop-color:#73684B"/>
	</linearGradient>
	<path class="st0" d="M33.8,11.4c-0.4,0-0.7,0.3-0.7,0.7c0,0.2,0.1,0.4,0.3,0.6l-7.2,7.8l-1-5.8c0.3-0.1,0.6-0.3,0.6-0.7
		c0-0.4-0.3-0.7-0.7-0.7c-0.4,0-0.7,0.3-0.7,0.7c0,0.3,0.2,0.5,0.4,0.7l-3.4,6.7l0.6,2l2.8-5.4l1.3,2.8l-4.3,4.7l-3.5-12.2l-0.4-1.4
		c0.3-0.1,0.5-0.4,0.5-0.7c0-0.4-0.3-0.7-0.7-0.7c-0.4,0-0.7,0.3-0.7,0.7c0,0.3,0.2,0.6,0.5,0.7l-0.4,1.4l-3.5,12.2l-4.3-4.7
		l1.3-2.8l2.8,5.4l0.6-2l-3.4-6.7c0.2-0.1,0.4-0.4,0.4-0.7c0-0.4-0.3-0.7-0.7-0.7c-0.4,0-0.7,0.3-0.7,0.7c0,0.4,0.3,0.6,0.6,0.7
		l-1,5.8l-7.3-8c0.1-0.1,0.1-0.2,0.1-0.4c0-0.4-0.3-0.7-0.7-0.7s-0.7,0.3-0.7,0.7c0,0.4,0.3,0.7,0.7,0.7c0.1,0,0.2,0,0.3-0.1
		l5.4,15.6l1.2-4.9L7,24.7l-2.7-7.4l9.8,10.7l3.6-12.7l3.6,12.7l9.8-10.7l-2.7,7.4l-1.1-1.2l1.2,4.9l5.3-15.6c0.4,0,0.7-0.3,0.7-0.7
		C34.5,11.7,34.2,11.4,33.8,11.4z"/>
	<linearGradient id="SVGID_2_" gradientUnits="userSpaceOnUse" x1="16.414" y1="5.7123" x2="21.9782" y2="37.8881">
		<stop  offset="0" style="stop-color:#D4B863"/>
		<stop  offset="0.1566" style="stop-color:#F4E540"/>
		<stop  offset="0.495" style="stop-color:#E4A54C"/>
		<stop  offset="0.6993" style="stop-color:#413932"/>
		<stop  offset="1" style="stop-color:#73684B"/>
	</linearGradient>
	<path class="st1" d="M28.4,29.5l-1.7-7l-5.5,6l-3.5-12.2l-3.5,12.2l-5.5-6l-1.7,7L1.3,13.2c-0.6,0-1.1-0.4-1.1-1c0-0.6,0.5-1,1-1
		s1,0.5,1,1c0,0.1,0,0.2-0.1,0.3L9,19.8l0.8-4.9c-0.3-0.2-0.5-0.5-0.5-0.9c0-0.6,0.5-1,1-1s1,0.5,1,1c0,0.3-0.1,0.6-0.3,0.8l3.3,6.5
		l-0.8,2.9l-2.8-5.6l-0.9,2l3.8,4.1l3.7-12.8c-0.3-0.2-0.5-0.5-0.5-0.9c0-0.6,0.5-1,1-1c0.6,0,1,0.5,1,1c0,0.4-0.2,0.7-0.5,0.9
		l3.7,12.8l3.8-4.1l-0.9-2l-2.8,5.6l-0.8-2.9l3.3-6.5c-0.2-0.2-0.3-0.5-0.3-0.8c0-0.6,0.5-1,1-1c0.6,0,1,0.5,1,1
		c0,0.4-0.2,0.7-0.5,0.9l0.8,4.9l6.5-7.1c-0.1-0.2-0.2-0.4-0.2-0.5c0-0.6,0.5-1,1-1s1,0.5,1,1c0,0.5-0.3,0.9-0.7,1L28.4,29.5z
		 M17.7,14l3.8,13.2L32,15.8l-3.5,9.5l-0.6-0.7l0.7,2.7l4.9-14.1L21.6,25.9l-3.9-13.7l-3.9,13.7L2,13.1l4.9,14.1l0.7-2.7l-0.6,0.7
		l-3.5-9.5l10.5,11.5L17.7,14z M5.1,18.6l2,5.4l1.5-1.6L5.1,18.6z M26.8,22.5l1.5,1.6l2-5.4L26.8,22.5z M21.8,21.3l0.3,1.1l2.7-5.3
		l0.8,1.8L25,15L21.8,21.3z M10.6,17.1l2.7,5.3l0.3-1.1L10.4,15l-0.6,3.8L10.6,17.1z M25.1,13.5c-0.2,0-0.4,0.2-0.4,0.4
		c0,0.2,0.1,0.3,0.2,0.4l0.1,0l0.1,0c0.2,0,0.3-0.2,0.3-0.4C25.5,13.7,25.3,13.5,25.1,13.5z M10.2,13.5c-0.2,0-0.4,0.2-0.4,0.4
		c0,0.2,0.1,0.4,0.3,0.4l0.1,0l0.1,0c0.1-0.1,0.2-0.2,0.2-0.4C10.6,13.7,10.5,13.5,10.2,13.5z M33.8,11.7c-0.2,0-0.4,0.2-0.4,0.4
		c0,0.2,0.1,0.3,0.1,0.3l0.1,0.1l0.1,0c0.2,0,0.3-0.2,0.3-0.4C34.2,11.9,34,11.7,33.8,11.7z M1.3,11.7c-0.2,0-0.4,0.2-0.4,0.4
		c0,0.3,0.3,0.5,0.5,0.4l0.1,0l0.1-0.1c0-0.1,0.1-0.1,0.1-0.2C1.6,11.9,1.5,11.7,1.3,11.7z M17.7,10.6c-0.2,0-0.4,0.2-0.4,0.4
		c0,0.2,0.1,0.3,0.3,0.4l0.1,0l0.1,0c0.2,0,0.3-0.2,0.3-0.4C18.1,10.8,17.9,10.6,17.7,10.6z"/>
</g>
</svg>
